<svg
	v-if="documentIcon"
	xmlns="http://www.w3.org/2000/svg"
	width="50"
	height="50"
>
	<path
		fill="#0094E4"
		fill-rule="evenodd"
		d="M24.999 49.999c-13.808 0-25.001-11.192-25.001-25 0-13.807 11.193-25 25.001-25 13.806 0 24.998 11.193 24.998 25 0 13.808-11.192 25-24.998 25zm0-48.998c-13.256 0-24 10.744-24 23.998 0 13.255 10.744 24 24 24 13.254 0 23.999-10.745 23.999-24 0-13.254-10.745-23.998-23.999-23.998z"
	/>
	<path
		fill="#0094E4"
		fill-rule="evenodd"
		d="M15.998 12.999v23h18V19.297l-.141-.157-5.999-6-.157-.141H15.998zM16.999 14h9.998v5.999h6.001v15H16.999V14zM28 14.718l4.28 4.281H28v-4.281zM19.998 23v1h10v-1h-10zm0 2.999v1H28v-1h-8.002zm0 3V30h10v-1.001h-10z"
	/>
</svg>